<?xml version="1.0" encoding="utf-8"?>
<!-- Generator: Adobe Illustrator 17.1.0, SVG Export Plug-In . SVG Version: 6.00 Build 0)  -->
<!DOCTYPE svg PUBLIC "-//W3C//DTD SVG 1.1//EN" "http://www.w3.org/Graphics/SVG/1.1/DTD/svg11.dtd">
<svg version="1.1" id="Layer_1" xmlns="http://www.w3.org/2000/svg" xmlns:xlink="http://www.w3.org/1999/xlink" x="0px" y="0px"
	 viewBox="0 0 90 90" style="enable-background:new 0 0 90 90;" xml:space="preserve">
<style type="text/css">
	.st0{fill:#373737;}
	.st1{fill:#FFFFFF;}
	.st2{fill:#5D5C5D;}
	.st3{fill:#DFE0E1;}
	.st4{fill:#E85C41;}
	.st5{fill:#FED156;}
	.st6{fill:#95D1C4;}
	.st7{fill:#6DC5DC;}
	.st8{fill:#B1E0EC;}
	.st9{fill:none;stroke:#5D5C5D;stroke-width:2;stroke-miterlimit:10;}
	.st10{fill:none;}
	.st11{fill:#449A88;}
	.st12{fill:#F5B7AB;}
	.st13{fill:#FFE8AA;}
	.st14{fill:#EE836E;}
	.st15{fill:#4A4A4A;}
	.st16{fill:#9B9B9B;}
	.st17{fill-rule:evenodd;clip-rule:evenodd;fill:#9B9B9B;}
	.st18{clip-path:url(#SVGID_2_);}
	.st19{fill:none;stroke:#4A4A4A;stroke-width:2;stroke-miterlimit:10;}
	.st20{fill:#959595;}
	.st21{fill:none;stroke:#959595;stroke-width:4;stroke-miterlimit:10;}
	.st22{fill:#D0D0D0;}
</style>
<g>
	<rect x="32" y="44" class="st22" width="7" height="4"/>
	<rect x="32" y="54" class="st22" width="24" height="4"/>
	<rect x="32" y="64" class="st22" width="13" height="4"/>
</g>
<g>
	<g>
		<polygon class="st20" points="52,80 28,80 28,35 39,35 39,31 24,31 24,84 52,84 66,71 52,71 		"/>
		<polygon class="st20" points="51,31 51,35 62,35 62,71 66,71 66,31 		"/>
	</g>
	<polygon class="st20" points="47,12 47,48 43,48 43,12 34,22 31,20 45,5 59,20 56,22 	"/>
</g>
</svg>
